inDegrees=no
num_controls=7
num_derivatives=13
num_iterations=133
num_multipliers=7
num_parameters=0
num_slacks=7
num_states=26
objective=5.668285
objective_accelerations=0.608834
objective_balance=0.010839
objective_effort=0.460056
objective_height=4.473022
objective_ligament=0.115534
solver_duration=1111.168065
status=Solve_Succeeded
success=true
DataType=double
version=3
OpenSimVersion=4.4-2022-07-23-0e9fedc
endheader
time	/jointset/ground_pelvis/pelvis_tilt/value	/jointset/ground_pelvis/pelvis_tx/value	/jointset/ground_pelvis/pelvis_ty/value	/jointset/hip_r/hip_flexion_r/value	/jointset/hip_r/hip_adduction_r/value	/jointset/hip_r/hip_rotation_r/value	/jointset/back/lumbar_extension/value	/jointset/patellofemoral_r/patellar_flexion_r/value	/jointset/knee_r/knee_flexion_r/value	/jointset/knee_r/knee_adduction_r/value	/jointset/knee_r/knee_rotation_r/value	/jointset/ankle_r/ankle_angle_r/value	/jointset/subtalar_r/subtalar_angle_r/value	/jointset/ground_pelvis/pelvis_tilt/speed	/jointset/ground_pelvis/pelvis_tx/speed	/jointset/ground_pelvis/pelvis_ty/speed	/jointset/hip_r/hip_flexion_r/speed	/jointset/hip_r/hip_adduction_r/speed	/jointset/hip_r/hip_rotation_r/speed	/jointset/back/lumbar_extension/speed	/jointset/patellofemoral_r/patellar_flexion_r/speed	/jointset/knee_r/knee_flexion_r/speed	/jointset/knee_r/knee_adduction_r/speed	/jointset/knee_r/knee_rotation_r/speed	/jointset/ankle_r/ankle_angle_r/speed	/jointset/subtalar_r/subtalar_angle_r/speed	/forceset/tau_hip_flexion_r	/forceset/tau_hip_adduction_r	/forceset/tau_hip_rotation_r	/forceset/tau_knee_flexion_r	/forceset/tau_ankle_angle_r	/forceset/tau_subtalar_angle_r	/forceset/tau_lumbar_extension	lambda_cid13_p0	lambda_cid14_p0	lambda_cid14_p1	lambda_cid14_p2	lambda_cid14_p3	lambda_cid14_p4	lambda_cid14_p5	/jointset/ground_pelvis/pelvis_tilt/accel	/jointset/ground_pelvis/pelvis_tx/accel	/jointset/ground_pelvis/pelvis_ty/accel	/jointset/hip_r/hip_flexion_r/accel	/jointset/hip_r/hip_adduction_r/accel	/jointset/hip_r/hip_rotation_r/accel	/jointset/back/lumbar_extension/accel	/jointset/patellofemoral_r/patellar_flexion_r/accel	/jointset/knee_r/knee_flexion_r/accel	/jointset/knee_r/knee_adduction_r/accel	/jointset/knee_r/knee_rotation_r/accel	/jointset/ankle_r/ankle_angle_r/accel	/jointset/subtalar_r/subtalar_angle_r/accel	gamma_cid13_p0	gamma_cid14_p0	gamma_cid14_p1	gamma_cid14_p2	gamma_cid14_p3	gamma_cid14_p4	gamma_cid14_p5
0	0.003967502765037648	0.1258438592109868	0.9348623559180383	0.1934208783645156	-0.2091271669683165	-0.2398008170796707	-0.2903791543005566	0.2311793314021612	0.2311793314021609	0.09133821742978412	0.160003962564723	0.08934340440958972	0.08750105225248098	0	0	0	0	0	0	0	0	0	0	0	0	0	0.1151949290764355	-0.05340966780275219	-5.245921823577102e-05	-0.2505805390854812	0.1334227451025466	-0.05791614704268153	-0.03296776149550363	-29.42252911611041	-2.065012389922477	-22.02831876764736	-0.04826612198871069	-0.5234011768281347	-608.8393894793813	56.39866638523402	-1.896004363890882	-1.815413120652032	-0.8833339139110676	9.963177675521262	0.01519022373308992	1.737642382191979	-6.31423345074459	10.24847349049413	10.24847349049409	-2.763369572328024	0.6225265339543077	2.843775456773589	0.8794942912272112	2.860606362909816e-08	1.330754386204853e-08	-2.356752472119729e-07	1.70034662182314e-07	1.177000162366779e-08	1.140887161770624e-07	-2.08148557945352e-07
0.01	0.003879074367439091	0.1257541355956665	0.934819433730437	0.1939055259678922	-0.209125164999769	-0.2397140354326169	-0.2906966146895681	0.2316816655121174	0.2316816655120955	0.091200224107283	0.1600321337175167	0.08948272576517667	0.08754567981297133	-0.01760386783911511	-0.01786525902000199	-0.008559113290503228	0.0964897177658046	0.0003876969791125646	0.01727481869723026	-0.06308486073102812	0.1000107056463875	0.1000107056463877	-0.02744557342207887	0.005604176960295048	0.02772945860519094	0.008870367981129916	0.1102974538190106	-0.06177780415408569	0.0002651984922346478	-0.2450908095941583	0.1238806271087372	-0.04829838243952986	-0.02874047345642028	-29.42891964846345	-4.613845484711312	-18.01331092318623	-1.013101648095578	0.3795491112510696	-610.397052133836	64.34134706691172	-1.680308206630068	-1.760160332120786	-0.8383785844052278	9.425898007319478	0.04864978119621854	1.710210685209872	-6.244529823585709	9.808945929214039	9.808945929214081	-2.712209235876933	0.5248892706213933	2.717314010217149	0.8825195739219945	3.625683575922311e-08	2.553078775140266e-10	-2.825759938447159e-07	1.670854219013669e-07	2.768929908826218e-08	-7.062550896172754e-09	-2.19230787219591e-07
0.02	0.003617061248908855	0.1254881437822569	0.9346916847003733	0.1953418765849726	-0.2091196679921891	-0.2394569437842455	-0.2916327071737497	0.233170422044008	0.2331704220440068	0.09079236344877435	0.1601154518386849	0.08989529829638167	0.08767735335774621	-0.03471694418655523	-0.0352536396178744	-0.01696536849240725	0.1903406027399893	0.000699007806065773	0.03406200026330924	-0.1237264190342053	0.1972844843928936	0.1972844843928942	-0.05397346719331948	0.01102939366275654	0.05465023512339329	0.01740919685690254	0.1053999785616064	-0.07014594050543776	0.0005828562030103986	-0.239601080102839	0.1143385091149216	-0.03868061783640779	-0.02451318541731359	-29.44758834899869	-7.082781796489647	-13.9972259315409	-1.963359425089023	1.290315927099869	-610.695031354233	72.05083756708005	-1.797846065555868	-1.720037436226134	-0.8527622961912257	9.43541111719729	-8.700669877833531e-05	1.640114955961721	-5.825572965174394	9.701088110517839	9.701088110517842	-2.579833642160379	0.5867344823875976	2.682039039375848	0.8131864701557463	4.390760788934806e-08	-1.279692810702048e-08	-3.294767404774588e-07	1.641361816204199e-07	4.360859655285658e-08	-1.282138179694079e-07	-2.3031301649383e-07
0.03	0.003185813589571429	0.1250509419757881	0.9344803326082405	0.1977038696729606	-0.2091115976137173	-0.2390345899379356	-0.2931625088202695	0.2356183608049383	0.2356183608049602	0.09012417537073163	0.1602521343579364	0.0905733194292531	0.08789267957331683	-0.05146524426510998	-0.05207739209376561	-0.02530265014112558	0.2815992595146186	0.0009051214730849014	0.05032444735422592	-0.1818225245243914	0.2918422721787702	0.2918422721787725	-0.07950911534986643	0.01625083435693686	0.08085009137635989	0.02561644554802358	0.1010829700705888	-0.06589540464753786	0.0007116992963230237	-0.2368037380661901	0.1119531886357107	-0.03991701382975716	-0.02067751607717537	-29.47772275859814	-7.919483165945329	-14.67350136455483	-1.863757543085266	1.108546183544383	-611.0988846920836	69.93167355510566	-1.603217192632294	-1.647135929974605	-0.8238772625177979	8.902280178385629	0.02945421191323733	1.606698992452206	-5.739921479090314	9.26396595757433	9.263965957574607	-2.517211308549121	0.481442106292235	2.573379863102513	0.8185221024320228	4.378975695993452e-08	-2.637872900679366e-08	-3.225938911694218e-07	1.108284096035924e-07	5.465203398507862e-08	-2.463496971153606e-07	-1.86409763928416e-07
0.04	0.002589103886723881	0.1244487842892195	0.9341856744669594	0.2009646867728447	-0.2091017673668711	-0.2384521337393571	-0.2952609299493226	0.2389980458127477	0.2389980458127465	0.08920527462993177	0.1604393499327365	0.09151022331362262	0.08818888388256706	-0.06780935288875083	-0.06824481563783823	-0.03362657832206029	0.3701054051208375	0.001050981480536999	0.0660824707169719	-0.237450315540559	0.3836337337627174	0.3836337337627223	-0.1041159997523086	0.021136004785481	0.1064267854231442	0.03358481559281511	0.09676596157950111	-0.06164486878962336	0.0008405423892954675	-0.2340063960295578	0.1095678681564991	-0.04115340982308374	-0.01684184673709569	-29.51804719076329	-8.683491566105461	-15.35078392099414	-1.748305718525501	0.9252222642306424	-610.3549211171573	67.60167735195256	-1.717007774573077	-1.58877164986244	-0.8500916026345011	8.884908883515227	-0.01213773861218577	1.539230210327578	-5.331910070370683	9.147822870131979	9.147822870132121	-2.394080891339435	0.5194804292603622	2.557406598139355	0.7654107408898395	4.351172823547895e-08	-3.997144877079858e-08	-3.146021017388946e-07	5.64823173447879e-08	6.559493822075692e-08	-3.644234033143593e-07	-1.413727900879576e-07
0.05	0.001830601334994043	0.1236881152235873	0.9338075809528769	0.2050974915159291	-0.2090911232060115	-0.237714896576531	-0.2979029969230543	0.2432821557485859	0.2432821557485825	0.08804564121072786	0.1606741093850127	0.09269961145938549	0.08856312407447363	-0.08381511642380807	-0.08379018763427616	-0.04200739328576036	0.4560074456875636	0.001072030582182026	0.08126430617652268	-0.2905717618396302	0.4727325094484768	0.4727325094484838	-0.1276618160531054	0.02575766477842754	0.1313340137637321	0.0412268775704787	0.09161530439585418	-0.06015487479002651	0.001065053803313433	-0.2305762291502396	0.1050271316090536	-0.03945484802302836	-0.01252388709488131	-29.5671305119416	-9.974054203261067	-14.77545823986534	-1.912684746935685	1.113439747190926	-609.7879058198716	67.80745851784506	-1.530946516246353	-1.522585289042437	-0.8344406007431924	8.375638111310259	0.008326919084153603	1.492581238108723	-5.243564304742608	8.72253462411682	8.722534624117014	-2.312544385884929	0.4247907698820865	2.439862051899369	0.7581102107333907	4.130844070252161e-08	-5.126508069197608e-08	-3.064720379737314e-07	-4.750476625029786e-08	7.373880831855326e-08	-4.652744558564915e-07	-5.841659802515611e-08
0.06	0.000914323973258947	0.122774959375089	0.9333452064576563	0.2100758739582994	-0.209080448417231	-0.2368288568542459	-0.3010645388387892	0.2484435793825531	0.2484435793825523	0.08665500715126645	0.1609533418343139	0.09413456810852909	0.08901268614306264	-0.0993643148898468	-0.09874217221105804	-0.05048277454965502	0.5392209449766396	0.001057107065068133	0.09584298260967244	-0.3413453039413896	0.5590964733869925	0.5590964733870007	-0.1503161278113126	0.03003060419418623	0.1555404860995541	0.04864919092929444	0.08646464721228399	-0.05866488079040128	0.001289565217248189	-0.2271460622708749	0.1004863950616339	-0.03775628622292885	-0.008205927452624721	-29.62317987790372	-11.19864619399253	-14.19900421519182	-2.065338064052929	1.285785176586516	-608.1955361677601	67.8448428893544	-1.625694760769359	-1.470094165931255	-0.8690048626734165	8.347200627985238	-0.01933226236396591	1.41859840504737	-4.862329230908295	8.600860520683218	8.600860520683215	-2.215779982821524	0.4497363138227922	2.417255397186136	0.7214610171202666	3.902408964078525e-08	-6.24619089145082e-08	-2.983361521313205e-07	-1.535819968490165e-07	8.176482434738615e-08	-5.654003440341241e-07	2.61361926996387e-08
0.07000000000000001	-0.0001556981365758658	0.1217152763448323	0.9327973770819574	0.215873661238498	-0.2090704797068786	-0.2357999043465893	-0.3047216922584562	0.2544553603232648	0.2544553603232644	0.08504307331984574	0.1612736060754012	0.09580810928858723	0.08953492434196589	-0.1145692655589447	-0.1130913914692441	-0.05911216526185945	0.6198948138270421	0.000936342161993725	0.1098275032071312	-0.3897068479543731	0.642806383896807	0.642806383896813	-0.1719327175834799	0.03396762992348475	0.1790545981287709	0.05577193868913168	0.08121562479877108	-0.05660695351701852	0.001526587002701662	-0.2245982044022535	0.09700152630536514	-0.03657149423408821	-0.003847569716684868	-29.68429916654286	-12.13558407104878	-13.82442477421181	-2.152556358509993	1.251977911819951	-606.914863099899	67.50464186119807	-1.457257646803138	-1.401862999929001	-0.8643801699665616	7.861226508185293	-0.008550404952235234	1.370361802095315	-4.766287180834266	8.188048910180514	8.188048910180171	-2.11397049767948	0.3574714087527737	2.301524293272292	0.7036404139659246	3.281395672367826e-08	-7.354077336139085e-08	-2.737566670235331e-07	-3.140102225278286e-07	8.751353796946748e-08	-6.559885664405432e-07	1.546009729071553e-07
0.08	-0.001375642238466539	0.1205151956831602	0.932162359000242	0.2224649365061277	-0.209061739005693	-0.2346347100499593	-0.3088511051571203	0.2612906388878872	0.2612906388878897	0.0832190991860606	0.1616315977150296	0.09771339862643375	0.09012758177017757	-0.1293487133009702	-0.1268216984941145	-0.06792051575294381	0.6979185424621446	0.0008115052319941818	0.1230913404045993	-0.4357971997409898	0.7237959981686201	0.7237959981686238	-0.1927241882862548	0.03757608390355862	0.2018901176573011	0.0627330367909878	0.07596660238529802	-0.05454902624362849	0.001763608788128646	-0.2220503465336122	0.09351665754910547	-0.03538670224523498	0.0005107880192818098	-29.74831546060369	-13.01394642832289	-13.44874788590868	-2.229487602012112	1.188934398731922	-604.7322304387541	67.03986893761298	-1.540594175354846	-1.346311719268147	-0.9047968184494044	7.817172584925254	-0.02014666774898796	1.274461725049241	-4.408090785634917	8.056801273082938	8.056801273082929	-2.050756168943069	0.3840219639778623	2.28153689704879	0.6891310855240383	2.635054755783769e-08	-8.461202724210253e-08	-2.481163045437861e-07	-4.779449640182596e-07	9.311532885562935e-08	-7.459614555714001e-07	2.858987846942022e-07
0.09	-0.002741656205728467	0.1191808866961017	0.9314381828009007	0.2298237885456744	-0.2090548358138689	-0.2333398045303484	-0.313429677005644	0.2689226201301609	0.2689226201301596	0.08119259751966081	0.1620237526778478	0.09984358097587882	0.09078830993214132	-0.143776782132697	-0.1399374173864121	-0.07695299480196104	0.7734072587033323	0.0005628479611755568	0.1357863978902702	-0.4795491570531534	0.8021498047487362	0.8021498047487344	-0.2124204451216704	0.04078218200774548	0.2240290062070687	0.069378026303043	0.0702904249974583	-0.05252028733230327	0.002058065978147134	-0.2196798621165169	0.08983923928241987	-0.03405646186733313	0.005152173880387923	-29.81300239845076	-13.97225268156605	-13.02111330844408	-2.317886471112355	1.204832024041257	-602.943365740863	66.69848582718288	-1.382304916795776	-1.278781031004387	-0.9083646975232784	7.34803043327523	-0.02827377086552732	1.251455216500286	-4.303546267399023	7.657098354282216	7.657098354281363	-1.905788637214289	0.277914451717197	2.162474363623816	0.6469014119385733	1.524497159945446e-08	-8.448583433491043e-08	-1.150330349634118e-07	-4.096242686699486e-07	8.32518561658593e-08	-7.304791711611795e-07	2.793721058492943e-07
